FILE "Megami Tengoku II (1996)(NEC Home Electronics)(JP)[FXNHE623].img" BINARY
  TRACK 01 AUDIO
    INDEX 01 00:00:00
  TRACK 02 MODE1/2352
    PREGAP 00:03:00
    INDEX 01 00:42:06
  TRACK 03 AUDIO
    PREGAP 00:02:00
    INDEX 01 65:44:62
  TRACK 04 MODE1/2352
    PREGAP 00:03:00
    INDEX 01 67:56:22
